<svg xmlns="http://www.w3.org/2000/svg" xmlns:xlink="http://www.w3.org/1999/xlink" viewBox="0 0 792 576">
  <defs>
    <style>
      .cls-1 {
        fill: url(#Pastel_Multicolor_1);
      }

      .cls-2 {
        fill: url(#Skintone_21);
      }

      .cls-3 {
        fill: url(#Skintone_21-2);
      }

      .cls-4 {
        fill: url(#Skintone_21-3);
      }

      .cls-5 {
        fill: url(#Skintone_21-4);
      }

      .cls-6 {
        fill: url(#Skintone_21-5);
      }

      .cls-7 {
        fill: url(#Skintone_21-6);
      }

      .cls-8 {
        fill: url(#Skintone_21-7);
      }

      .cls-9 {
        fill: url(#Skintone_21-8);
      }

      .cls-10 {
        fill: url(#Skintone_21-9);
      }

      .cls-11 {
        fill: url(#Skintone_21-10);
      }

      .cls-12 {
        fill: url(#Skintone_21-11);
      }
    </style>
    <linearGradient id="Pastel_Multicolor_1" data-name="Pastel Multicolor 1" x1="172.29" y1="675.47" x2="619.71" y2="-99.47" gradientUnits="userSpaceOnUse">
      <stop offset="0" stop-color="#b5d4ef"/>
      <stop offset="0.25" stop-color="#d5e8bf"/>
      <stop offset="0.5" stop-color="#fffbc8"/>
      <stop offset="0.76" stop-color="#fde1d4"/>
      <stop offset="0.99" stop-color="#f9c9de"/>
    </linearGradient>
    <linearGradient id="Skintone_21" data-name="Skintone 21" x1="51.01" y1="296.57" x2="113.99" y2="296.57" gradientUnits="userSpaceOnUse">
      <stop offset="0" stop-color="#c18f73"/>
      <stop offset="0.51" stop-color="#b57e5c"/>
      <stop offset="1" stop-color="#78533b"/>
    </linearGradient>
    <linearGradient id="Skintone_21-2" x1="120.66" y1="304.35" x2="168.25" y2="304.35" xlink:href="#Skintone_21"/>
    <linearGradient id="Skintone_21-3" x1="171.79" y1="305.03" x2="226.55" y2="305.03" xlink:href="#Skintone_21"/>
    <linearGradient id="Skintone_21-4" x1="227.35" y1="297.01" x2="256.91" y2="297.01" xlink:href="#Skintone_21"/>
    <linearGradient id="Skintone_21-5" x1="261.18" y1="296.83" x2="317.45" y2="296.83" xlink:href="#Skintone_21"/>
    <linearGradient id="Skintone_21-6" x1="321.91" y1="305.11" x2="367.88" y2="305.11" xlink:href="#Skintone_21"/>
    <linearGradient id="Skintone_21-7" x1="375.36" y1="296.89" x2="431.64" y2="296.89" xlink:href="#Skintone_21"/>
    <linearGradient id="Skintone_21-8" x1="455.49" y1="296.88" x2="510.74" y2="296.88" xlink:href="#Skintone_21"/>
    <linearGradient id="Skintone_21-9" x1="512" y1="315.48" x2="576.82" y2="315.48" xlink:href="#Skintone_21"/>
    <linearGradient id="Skintone_21-10" x1="602.61" y1="296.86" x2="680.15" y2="296.86" xlink:href="#Skintone_21"/>
    <linearGradient id="Skintone_21-11" x1="681.98" y1="296.89" x2="749.92" y2="296.89" xlink:href="#Skintone_21"/>
  </defs>
  <g id="_12" data-name="12">
    <rect class="cls-1" width="792" height="576"/>
  </g>
  <g id="_1" data-name="1">
    <text/>    <path class="cls-2" d="M110.56,278.67q0,10.33-11.75,14.57a33.15,33.15,0,0,1,7,2.94A15.5,15.5,0,0,1,114,310.46a17.75,17.75,0,0,1-7.2,14.83q-7.19,5.5-19.23,5.5c-2.91,0-6.58-.17-11-.51s-7.73-.51-9.82-.51a42.16,42.16,0,0,0-5.16.3l-4.76.61a4.07,4.07,0,0,0-.71.1h-.71Q51,330.67,51,327.13c0-2.16,1.05-3.24,3.14-3.24a19.52,19.52,0,0,1,2.74.31,15.15,15.15,0,0,0,2.12.2q5.16,0,5.17-7.49l0-40.69q0-7.59-5.16-7.6a13.61,13.61,0,0,0-2.12.2,17.59,17.59,0,0,1-2.74.31c-2.09,0-3.14-1.08-3.13-3.24q0-3.56,4.65-3.54H57l5,.71a43.44,43.44,0,0,0,5.77.3c2.56,0,6.21-.2,10.93-.6q4.75-.4,10.23-.4,10.22,0,15.94,4.31T110.56,278.67ZM71.78,303.55v11.24q0,6.58,2.23,8.1t12.14,1.53q18.93,0,18.94-14.17,0-13-18.22-13.07h-8.4q-5.46,0-6.27,2.43A13.27,13.27,0,0,0,71.78,303.55Zm0-20.55q0,5.37,1,6.64t5.31,1.26h5.67q17.91,0,17.92-11.64,0-10.62-14.77-10.63-10.32,0-12.71,1.31c-1.58.87-2.38,3.13-2.38,6.78Z"/>
  </g>
  <g id="_2" data-name="2">
    <path class="cls-3" d="M138.3,282.58v2.79A16.47,16.47,0,0,1,152.37,278q7.08,0,11.49,4a13.23,13.23,0,0,1,4.39,10.28A11.17,11.17,0,0,1,166,299.5a7.13,7.13,0,0,1-5.87,2.78,5.77,5.77,0,0,1-4-1.42,4.39,4.39,0,0,1-1.61-3.44,4,4,0,0,1,1.21-2.88,3.8,3.8,0,0,1,2.84-1.27,5.81,5.81,0,0,1,1.31.31,5,5,0,0,0,.61-2.23,6.1,6.1,0,0,0-2.58-5,10.08,10.08,0,0,0-6.42-2q-7.91,0-10.54,7.08-1.62,4.35-1.62,13.16v6.68q0,6.78.1,7.59c.34,3.85,1.38,5.78,3.14,5.78a11.62,11.62,0,0,0,2.73-.35,8.8,8.8,0,0,1,1.92-.26c2.16,0,3.24,1.07,3.24,3.19q0,3.5-4.14,3.49H146a45.65,45.65,0,0,1-4.59-.35,43.44,43.44,0,0,0-4.59-.36c-2.69,0-4.81.06-6.36.2l-5.65.5q-4.12,0-4.13-3.54c0-2.1,1.29-3.14,3.88-3.14a9.31,9.31,0,0,1,1.53.1l1.54.31a9.2,9.2,0,0,0,1.43.2q2.55,0,2.76-4.66v-5.16l-.29-23q-.3-6-3-6a11.35,11.35,0,0,0-2.23.3,11.54,11.54,0,0,1-2.23.3q-3.34,0-3.34-3.24,0-3.54,4.36-3.54a26.93,26.93,0,0,1,3,.26,26.34,26.34,0,0,0,3,.25,21.18,21.18,0,0,0,2.63-.25,6.46,6.46,0,0,1,1.93-.25C137.42,279.7,138.3,280.66,138.3,282.58Z"/>
  </g>
  <g id="_3" data-name="3">
    <path class="cls-4" d="M216.22,331.67q-8.31,0-10.22-7.19-5.17,7.59-16.2,7.58-8.2,0-13.11-4.06a13.29,13.29,0,0,1-4.9-10.83q0-8.4,7.19-12.35a18.67,18.67,0,0,1,4.71-2q2-.45,7.94-1.16,8.51-.9,11.09-2.52t2.58-6a7.94,7.94,0,0,0-2.88-6.53q-2.88-2.39-8-2.39a15.45,15.45,0,0,0-8.51,2.53c-1,.67-1.52,1.38-1.52,2.12,0,.27.31.61.91,1a3.92,3.92,0,0,1,1.42,3.44,4.29,4.29,0,0,1-1.47,3.34,5.32,5.32,0,0,1-3.7,1.31,5.91,5.91,0,0,1-4.4-1.82,6.16,6.16,0,0,1-1.77-4.46q0-5.67,5.62-9.71a22.62,22.62,0,0,1,13.62-4Q213,278,213,295.69V316.1a42.47,42.47,0,0,0,.2,5.76q.6,3.52,3.44,3.53,3.54,0,3.54-6.43V314q0-3.21,3.1-3.21,3.28,0,3.28,4.86V322Q226.34,331.67,216.22,331.67ZM205,311.52v-7.19a13,13,0,0,1-4.69,2.83,47.29,47.29,0,0,1-8.83,1.42q-11.49,1.1-11.5,8.49a7.37,7.37,0,0,0,2.79,6.08,11.74,11.74,0,0,0,7.54,2.23q6.78,0,10.68-3.69T205,311.52Z"/>
  </g>
  <g id="_4" data-name="4">
    <path class="cls-5" d="M246.2,301v13.16q0,5.07.1,6,.5,4.56,2.73,4.56a15.73,15.73,0,0,0,2.53-.5,4.17,4.17,0,0,1,1.52-.21c2.56,0,3.85,1.12,3.84,3.35a3,3,0,0,1-1.27,2.43,5,5,0,0,1-3.2,1,40.64,40.64,0,0,1-4.92-.46,38.78,38.78,0,0,0-4.93-.46,48,48,0,0,0-5.89.4,51.94,51.94,0,0,1-5.28.51c-2.71,0-4.07-1.15-4.07-3.45s1.16-3.34,3.48-3.34a13.42,13.42,0,0,1,2.4.31,14,14,0,0,0,2.4.3c1.63,0,2.62-2.15,3-6.47V301q0-8.4,0-8.81-.51-6.37-3.06-6.38a10.47,10.47,0,0,0-2.3.36,10.91,10.91,0,0,1-2.2.35q-3.68,0-3.67-3.24c0-2.3,1.48-3.44,4.45-3.44a24.82,24.82,0,0,1,2.74.1c2.16.27,3.54.41,4.15.41a19.87,19.87,0,0,0,2.48-.25,18.34,18.34,0,0,1,2.48-.26q2.92,0,2.93,3.95c0,.27,0,.68-.08,1.22s-.08.94-.08,1.21c-.06.54-.11,2.63-.17,6.28Q246.21,296.66,246.2,301ZM241,274.49a5.72,5.72,0,0,1-5.67-5.67,5.3,5.3,0,0,1,1.67-3.95,5.75,5.75,0,0,1,8,0,5.31,5.31,0,0,1,1.67,3.95,5.7,5.7,0,0,1-5.67,5.67Z"/>
  </g>
  <g id="_5" data-name="5">
    <path class="cls-6" d="M283.87,278.05q10,0,15,7.8V275.63a34.61,34.61,0,0,0-.2-5c-.34-2.09-1.28-3.14-2.83-3.14a12.25,12.25,0,0,0-2.28.3,12.44,12.44,0,0,1-2.28.31c-2.5,0-3.74-1.09-3.74-3.25s1.69-3.34,5.06-3.33c.54,0,1.52.06,2.94.2l3.34.31a19.74,19.74,0,0,0,2.63-.26,21,21,0,0,1,2.63-.25c1.89,0,2.83,1.36,2.83,4.06v1.11c-.07.21-.13,2-.2,5.38,0,.4-.11,3-.31,7.81-.14,3.38-.21,5.94-.21,7.7v26.87q.11,6.69.61,8.32a2.31,2.31,0,0,0,2.48,1.62,8.31,8.31,0,0,0,2.06-.2,18.46,18.46,0,0,1,2.27-.2q3.81,0,3.81,3.34t-4.56,3.44a28.5,28.5,0,0,1-3.09-.26,27.57,27.57,0,0,0-3.08-.25c-.2,0-1,.07-2.33.2a9,9,0,0,1-2.13.3q-2.73,0-2.73-3.64v-2.23q-5.36,7.19-15.55,7.18t-16.55-7.5q-6.26-7.5-6.25-19.64t6.18-19.59Q273.54,278,283.87,278.05Zm14.55,35.74a71.61,71.61,0,0,0,.41-8.6,53,53,0,0,0-.5-9.21,12.71,12.71,0,0,0-4.38-7.9,14.42,14.42,0,0,0-9.38-3.35,13.2,13.2,0,0,0-11.16,5.36q-4,5.37-4,14.68,0,9.62,4.17,15.13a14.65,14.65,0,0,0,20.59,2.34A12.71,12.71,0,0,0,298.42,313.79Z"/>
  </g>
  <g id="_6" data-name="6">
    <path class="cls-7" d="M367.88,300.67q0,3.84-.51,4.71c-.34.57-1.32.86-2.94.85H332.24a2.87,2.87,0,0,0-1.72.35,1.5,1.5,0,0,0-.41,1.17,18.22,18.22,0,0,0,4.55,12.65A15.08,15.08,0,0,0,354.15,323a11.11,11.11,0,0,0,4.81-6.17l.91-2.93a3.14,3.14,0,0,1,3.34-2.43q3.75,0,3.75,3.85,0,6.58-6.69,11.69a24.39,24.39,0,0,1-15.19,5.1q-10.62,0-16.9-7.15t-6.27-19.18q0-12.35,6.7-20T346,278.08a21,21,0,0,1,15.69,6.39Q367.88,290.85,367.88,300.67ZM331.13,298c0,.94.74,1.42,2.23,1.42h24.19c1.42,0,2.13-.47,2.13-1.42a12.58,12.58,0,0,0-4.05-9.31,13.15,13.15,0,0,0-9.51-4,15.24,15.24,0,0,0-10.33,4.09Q331.13,293,331.13,298Z"/>
  </g>
  <g id="_7" data-name="7">
    <path class="cls-8" d="M398.05,278.11q10,0,15,7.8V275.69a34.61,34.61,0,0,0-.2-5c-.34-2.09-1.28-3.14-2.84-3.14a12.07,12.07,0,0,0-2.27.3,12.25,12.25,0,0,1-2.28.3q-3.75,0-3.74-3.24c0-2.22,1.68-3.34,5.06-3.34.54,0,1.52.07,2.93.21l3.34.3a19.35,19.35,0,0,0,2.64-.25,20.83,20.83,0,0,1,2.63-.25q2.83,0,2.83,4.06v1.11c-.07.21-.14,2-.21,5.38,0,.4-.1,3-.3,7.8q-.21,5.07-.21,7.71v26.87c.06,4.46.27,7.23.61,8.31a2.3,2.3,0,0,0,2.47,1.63,8.4,8.4,0,0,0,2.07-.2,21.42,21.42,0,0,1,2.27-.21q3.81,0,3.81,3.35t-4.56,3.44a28.31,28.31,0,0,1-3.09-.26,27.53,27.53,0,0,0-3.09-.25c-.2,0-1,.06-2.32.2a9,9,0,0,1-2.13.3q-2.73,0-2.73-3.65V325q-5.36,7.18-15.55,7.18t-16.56-7.5q-6.25-7.5-6.25-19.64t6.19-19.59Q387.73,278.11,398.05,278.11Zm14.56,35.74a73.89,73.89,0,0,0,.41-8.6,55.17,55.17,0,0,0-.5-9.21,12.71,12.71,0,0,0-4.38-7.9,14.38,14.38,0,0,0-9.38-3.35,13.17,13.17,0,0,0-11.16,5.36q-4,5.37-4,14.68,0,9.62,4.17,15.13a14.66,14.66,0,0,0,20.6,2.34A12.71,12.71,0,0,0,412.61,313.85Z"/>
  </g>
  <g id="_8" data-name="8">
    <path class="cls-9" d="M475,265.9q-1,8.36-1.23,19.85a20.43,20.43,0,0,1,6.67-5.9,18.17,18.17,0,0,1,8.44-1.63q10.16.11,16.06,7.26t5.78,18.89q-.14,12.86-6.54,20.43t-17.14,7.46q-10.44-.12-15-8c.25,2,.37,3,.37,3.24q0,3.65-3.58,3.61t-3.49-5.1c0-.95,0-1.65,0-2.13,0-1.55,0-3.2.05-5l.6-7.79.11-10.22.29-27a13.83,13.83,0,0,0-.7-5.07,2.36,2.36,0,0,0-2.27-1.34c-.2,0-1.08.13-2.63.38a10.39,10.39,0,0,1-1.93.18c-2.29,0-3.43-1.12-3.4-3.28s1.38-3.32,4.08-3.29a17.82,17.82,0,0,1,2,.12L464,262a20,20,0,0,0,2.63.23,22.05,22.05,0,0,0,3.14-.27,25.33,25.33,0,0,1,3-.27c1.49,0,2.22,1,2.2,2.85Zm-.62,29.27a45.25,45.25,0,0,0-.81,9.1q-.1,10,1.48,13.79,3.09,7.41,11.95,7.52a13.21,13.21,0,0,0,11.22-5.4q4.18-5.48,4.29-14.78.11-9.52-3.76-15a12.59,12.59,0,0,0-10.69-5.53,13.87,13.87,0,0,0-8.7,2.89A12.88,12.88,0,0,0,474.39,295.17Z"/>
  </g>
  <g id="_9" data-name="9">
    <path class="cls-10" d="M534.5,289.62l11.63,34.22,12.37-33.7a7.36,7.36,0,0,0,.5-2.23c0-1.14-.77-1.72-2.33-1.72a7.52,7.52,0,0,0-1.92.2,20.37,20.37,0,0,1-2.12.2q-3.35,0-3.34-3.24,0-3.44,4.35-3.44a15.92,15.92,0,0,1,2,.21l3.64.5a20.74,20.74,0,0,0,3,.21,39.9,39.9,0,0,0,5.06-.46,41.26,41.26,0,0,1,5.06-.45q4.35,0,4.35,3.39c0,2.2-1.11,3.29-3.34,3.29a4.21,4.21,0,0,1-1.52-.2,9.83,9.83,0,0,0-1.82-.3c-1.28,0-2.6,1.71-3.95,5.16L552.4,325.67q-4.56,11.43-8.61,16.59-6.88,8.81-17.21,8.8a16.87,16.87,0,0,1-10.38-3.14c-2.8-2.09-4.2-4.63-4.2-7.6a7.27,7.27,0,0,1,1.83-5.11,6.18,6.18,0,0,1,4.76-2,5.52,5.52,0,0,1,3.84,1.37A4.35,4.35,0,0,1,524,338a3.92,3.92,0,0,1-2.94,4.15c1,1.48,2.94,2.23,5.77,2.23a13.87,13.87,0,0,0,9.67-4q4.31-4,4.31-9,0-2.54-2.73-9.41l-11.12-28.15-1.21-3.24q-1.73-4.56-4-4.56a18,18,0,0,0-2.18.25,16,16,0,0,1-2.07.25q-3.54,0-3.54-3.24,0-3.43,4.66-3.44a16.9,16.9,0,0,1,2.32.12l4,.6h.81a10.1,10.1,0,0,0,1.22.1,70.11,70.11,0,0,0,7.79-.46c2.09-.23,3.48-.35,4.15-.35,2.84,0,4.25,1.12,4.25,3.35s-1.28,3.34-3.84,3.34a13.75,13.75,0,0,1-1.93-.21,15.06,15.06,0,0,0-1.92-.2,1.25,1.25,0,0,0-1.42,1.42A6.61,6.61,0,0,0,534.5,289.62Z"/>
  </g>
  <g id="_10" data-name="10">
    <path class="cls-11" d="M624.29,296.14l28.56-24.28a2.4,2.4,0,0,0,1.11-1.72c0-.74-.64-1.11-1.92-1.11a4,4,0,0,0-1.11.1,53.72,53.72,0,0,1-5.37.4q-3.64,0-3.64-3.54,0-3.35,4.36-3.34a39.38,39.38,0,0,1,4.15.2l5.36.61a49,49,0,0,0,5.37.41,62,62,0,0,0,9-.8,30.83,30.83,0,0,1,4-.41c2.57,0,3.85,1.15,3.85,3.45s-1.18,3.44-3.54,3.44h-3.65a10.42,10.42,0,0,0-6.88,2.51L644.85,288c-.81.67-1.22,1.28-1.22,1.81a3.67,3.67,0,0,0,1,1.72l1.52,2.32,16.18,22q6.48,8.79,9.72,8.79a2.92,2.92,0,0,0,.61-.11h.5c1.82-.2,2.94-.3,3.34-.3,2.43,0,3.65,1.15,3.64,3.45s-1.31,3.44-3.95,3.44l-5.06-.61a79.6,79.6,0,0,0-8.5-.41q-5.46,0-11.44.6c-2.63.27-4.12.4-4.45.4q-3.75,0-3.75-3.29c0-2.4,1.32-3.59,4-3.59.74,0,1.79.05,3.14.17,2.63.22,4.15.34,4.56.34,1.62,0,2.43-.34,2.43-1a3.71,3.71,0,0,0-.91-1.93l-18.82-25.62c-.4-.54-.78-.81-1.11-.81s-.71.27-1.32.81l-10.63,9.31c-.07,1.21-.11,2.6-.11,4.15q0,8.81.1,9.41c.54,3.85,2.22,5.77,5.06,5.77a13.61,13.61,0,0,0,2.23-.3,15.34,15.34,0,0,1,2.73-.3,3,3,0,0,1,2.23,1,3.33,3.33,0,0,1,.9,2.38c0,2.37-1.48,3.54-4.45,3.54h-.71a2.87,2.87,0,0,0-.71-.1l-5.67-.81a51.35,51.35,0,0,0-6.58-.31,39.49,39.49,0,0,0-5.36.3l-5.57.81a2.58,2.58,0,0,0-.61.1h-.6q-4.56,0-4.56-3.6c0-2.19,1-3.29,3.14-3.28a15.62,15.62,0,0,1,2.74.36,11.08,11.08,0,0,0,2.12.25q5.05,0,5.07-7.59,0,.19.1-7.09V283.69l-.09-7.09q0-7.59-5-7.59a9.39,9.39,0,0,0-2.11.25,21.18,21.18,0,0,1-2.71.25q-3.23,0-3.22-3.34c0-2.36,1.52-3.54,4.55-3.54a10.88,10.88,0,0,1,1.31.11l4.84.67a42.18,42.18,0,0,0,5.45.44,81.82,81.82,0,0,0,8.18-.6q5.44-.62,6.26-.61c2.82,0,4.24,1.19,4.24,3.55a3.37,3.37,0,0,1-.91,2.38,2.92,2.92,0,0,1-2.21,1,16.79,16.79,0,0,1-2.71-.31,8.43,8.43,0,0,0-2.11-.2c-2.34,0-3.82.82-4.42,2.48s-.88,5.68-.81,12.09Z"/>
  </g>
  <g id="_11" data-name="11">
    <path class="cls-12" d="M695.16,276.54q0-7.59-5.16-7.59a13.72,13.72,0,0,0-2.12.2,18.59,18.59,0,0,1-2.74.3q-3.14,0-3.13-3.24,0-3.54,4.55-3.54a12.9,12.9,0,0,1,1.32.1l5.37.71a48.91,48.91,0,0,0,6.47.41,53.84,53.84,0,0,0,5.67-.3l6.58-.7a46.37,46.37,0,0,1,5.06-.2q9.21,0,15.39,2.64a26.2,26.2,0,0,1,12.8,11.95,40.08,40.08,0,0,1,4.7,19.74,41.46,41.46,0,0,1-3.76,17.86,25.54,25.54,0,0,1-10.23,11.69q-7.8,4.55-18.83,4.55-2.22,0-4.56-.21l-7-.61q-3.54-.3-7.39-.31a40.28,40.28,0,0,0-5.46.3l-4.87.71a3.87,3.87,0,0,0-.7.1h-.81q-4.37,0-4.35-3.54a3.31,3.31,0,0,1,.91-2.38,3,3,0,0,1,2.23-1,15.43,15.43,0,0,1,2.73.3,8.42,8.42,0,0,0,2.12.21q5.17,0,5.17-7.59Zm8.51-1,0,42.66a5.26,5.26,0,0,0,4.56,5.66,50.32,50.32,0,0,0,8.5.4q12.15,0,17.62-6.54,6.58-7.86,6.59-20.78,0-10.08-4-17.09a18.31,18.31,0,0,0-11-9,38.52,38.52,0,0,0-10.73-1.31c-5.33,0-8.59.3-9.77.9S703.67,272.69,703.67,275.51Z"/>
  </g>
</svg>
